HIERARCHY
ROOT Hips
{
  OFFSET -33.9132 29.2015 117.021
  CHANNELS 6 Xposition Yposition Zposition Zrotation Xrotation Yrotation
  JOINT LeftUpLeg
  {
    OFFSET 8.64259 1.95398 -2.38835
    CHANNELS 3 Zrotation Xrotation Yrotation
    JOINT LeftLeg
    {
      OFFSET 43.7702 0 0
      CHANNELS 3 Zrotation Xrotation Yrotation
      JOINT LeftFoot
      {
        OFFSET 40.6238 0 0
        CHANNELS 3 Zrotation Xrotation Yrotation
        JOINT LeftToeBase
        {
          OFFSET 12.7242 0 0
          CHANNELS 3 Zrotation Xrotation Yrotation
          End Site
          {
            OFFSET 0 0 0
          }
        }
      }
    }
  }
  JOINT RightUpLeg
  {
    OFFSET -8.2249 1.95398 -2.59336
    CHANNELS 3 Zrotation Xrotation Yrotation
    JOINT RightLeg
    {
      OFFSET 43.5653 0 0
      CHANNELS 3 Zrotation Xrotation Yrotation
      JOINT RightFoot
      {
        OFFSET 40.6238 0 0
        CHANNELS 3 Zrotation Xrotation Yrotation
        JOINT RightToeBase
        {
          OFFSET 12.7242 0 0
          CHANNELS 3 Zrotation Xrotation Yrotation
          End Site
          {
            OFFSET 0 0 0
          }
        }
      }
    }
  }
  JOINT Spine
  {
    OFFSET 0.165834 0.87714 6.61349
    CHANNELS 3 Zrotation Xrotation Yrotation
    JOINT Spine1
    {
      OFFSET 7.38963 1.71661e-005 0
      CHANNELS 3 Zrotation Xrotation Yrotation
      JOINT Spine2
      {
        OFFSET 11.9445 1.14441e-005 0
        CHANNELS 3 Zrotation Xrotation Yrotation
        JOINT Spine3
        {
          OFFSET 14.7254 4.19617e-005 0
          CHANNELS 3 Zrotation Xrotation Yrotation
          JOINT Spine4
          {
            OFFSET 10.9679 0 0
            CHANNELS 3 Zrotation Xrotation Yrotation
            JOINT RightShoulder
            {
              OFFSET 2.46616 -1.6653 3.69651
              CHANNELS 3 Zrotation Xrotation Yrotation
              JOINT RightArm
              {
                OFFSET 13.0012 0 0
                CHANNELS 3 Zrotation Xrotation Yrotation
                JOINT RightForeArm
                {
                  OFFSET 28.7848 1.62311e-005 0
                  CHANNELS 3 Zrotation Xrotation Yrotation
                  JOINT RightHand
                  {
                    OFFSET 26.5688 1.62095e-005 0
                    CHANNELS 3 Zrotation Xrotation Yrotation
                    End Site
                    {
                      OFFSET 0 0 0
                    }
                  }
                }
              }
            }
            JOINT LeftShoulder
            {
              OFFSET 2.38034 -1.29275 -3.7523
              CHANNELS 3 Zrotation Xrotation Yrotation
              JOINT LeftArm
              {
                OFFSET 16.3182 6.07031e-005 0
                CHANNELS 3 Zrotation Xrotation Yrotation
                JOINT LeftForeArm
                {
                  OFFSET 27.0901 0 0
                  CHANNELS 3 Zrotation Xrotation Yrotation
                  JOINT LeftHand
                  {
                    OFFSET 24.5451 1.51738e-005 0
                    CHANNELS 3 Zrotation Xrotation Yrotation
                    End Site
                    {
                      OFFSET 0 0 0
                    }
                  }
                }
              }
            }
            JOINT Neck
            {
              OFFSET 5.0226 -0.0266342 0
              CHANNELS 3 Zrotation Xrotation Yrotation
              JOINT Head
              {
                OFFSET 6.69364 2.86102e-005 0
                CHANNELS 3 Zrotation Xrotation Yrotation
                End Site
                {
                  OFFSET 0 0 0
                }
              }
            }
          }
        }
      }
    }
  }
}
MOTION
Frames:	15
Frame Time:	0.0416667
-24.5257 90.7416 18.5291 101.877 49.2106 83.5087 -171.14 27.9798 88.3706 -7.72831 19.9554 0.404754 58.7932 13.1161 -24.8454 155.518 -1.34363 -60.87 174.418 30.0271 96.9761 -49.2874 -6.38999 4.35919 74.5764 -2.15865 -2.06031 18.1938 2.91756 5.7325 -0.839169 7.85848 -90.183 11.1557 -1.75522 -0.193076 -0.51405 -1.76201 -0.115613 -23.0571 -1.61606 -0.711791 -3.0445 -1.61603 -0.711786 90.6699 -30.6878 -105.185 49.8118 7.85546 4.77924 -4.87973 -35.2747 -5.22381 -11.4582 0.935192 -15.2042 -89.1422 -44.7399 78.8994 -25.5747 -10.7207 -31.7664 -9.74706 31.4594 -0.00312176 7.54689 -1.02824 -17.9671 4.18034 -1.96886 -8.67089 -2.0144 -0.406756 0.730052 
-17.1272 89.6865 11.2725 103.073 47.1478 84.1635 -171.037 25.3875 90.6653 -4.51067 20.5123 0.172061 54.1821 12.3052 -25.7469 156.886 -4.12544 -63.3155 173.837 25.2645 98.2072 -56.8538 -8.27494 5.67787 82.476 -7.18294 -1.87138 18.4214 2.74654 5.9669 -0.457884 7.95591 -90.4405 10.958 -1.11545 -0.771235 -0.712612 -1.1483 -0.721396 -23.2484 -0.832104 -1.07081 -3.23574 -0.83209 -1.07081 90.5472 -29.545 -105.841 49.0094 6.73583 -0.0039563 -5.00813 -37.4588 -5.2877 -14.5283 1.24836 -15.5507 -89.5315 -47.2745 78.8465 -25.2714 -12.518 -24.0441 -9.44005 34.7723 -0.0218541 5.59871 -0.0926503 -11.7497 4.47488 -1.1724 -5.50734 -1.91902 -0.171587 0.148764 
-11.0048 90.0735 5.19971 102.996 47.1851 82.6983 -172.353 24.1644 89.5171 -3.61644 9.70438 0.144348 56.0427 16.4313 -34.7336 161.641 1.3042 -56.8143 173.58 18.8891 96.9187 -57.8668 -8.97642 4.30265 88.6425 -9.43282 -1.478 21.7545 1.76141 4.7292 -0.217087 8.00911 -90.2517 10.8544 -0.548444 -0.449352 -0.816472 -0.567699 -0.42478 -23.3515 -0.388045 -0.593407 -3.33889 -0.388053 -0.593414 90.5564 -29.2699 -105.925 47.6728 5.1412 -7.21989 -4.86293 -34.9798 -5.21559 -18.5253 1.68524 -15.9299 -89.2819 -47.8297 79.3525 -24.3717 -11.8011 -12.9052 -10.224 31.7116 -0.0190966 4.46492 -0.00362265 -11.0648 2.98996 -1.43986 -5.64527 -0.806718 -0.475314 0.542032 
-6.49853 91.9043 0.2981 101.28 44.9364 81.6293 -173.815 24.4435 88.2662 -4.9322 -4.32176 0.0700805 60.5439 15.6231 -43.4646 168.57 14.135 -44.7509 174.006 12.4477 95.0109 -53.122 -11.1438 1.23032 89.7465 -10.6427 -2.63385 23.0231 1.14825 4.99674 0.371108 8.0522 -89.9438 10.7685 0.765008 0.0409292 -0.902209 0.766062 0.00721665 -23.4388 0.717321 0.268961 -3.42613 0.717336 0.268966 90.8926 -27.5532 -105.896 46.9539 3.36569 -14.2499 -4.79179 -33.7122 -5.18228 -20.6593 2.42507 -18.9013 -88.8236 -48.4439 80.1803 -21.5626 -7.73186 -2.91567 -11.902 31.0545 -0.028695 3.95676 -0.263117 -14.4383 3.58752 -2.07555 -3.70659 -0.766071 -1.42834 -0.792432 
-2.57704 93.5736 -4.56593 100.628 42.7336 81.7402 -176.543 24.8517 88.8233 -7.47523 0.51128 0.05675 59.572 6.20676 -34.1506 166.173 28.8361 -31.2612 174.096 3.94464 95.5905 -46.2251 -13.1015 0.0448802 88.1408 -11.8323 -2.89739 25.4841 -0.0383641 5.61473 0.938256 8.17705 -89.9288 10.5209 1.9016 -0.0286403 -1.1486 1.89849 -0.112343 -23.6944 1.82225 0.544387 -3.68176 1.82225 0.544382 90.6196 -25.7032 -107.205 45.42 2.5227 -19.8458 -4.78823 -33.648 -5.18078 -22.5567 3.16542 -21.4618 -89.1602 -51.4345 80.2656 -17.8034 -7.60952 3.67304 -12.0693 29.4304 -0.0349738 3.57641 -0.306187 -14.9169 3.65865 -2.80872 0.818126 1.00998 -3.02565 -3.83291 
2.24008 94.8535 -10.2394 102.024 42.4591 80.8269 -177.41 22.9623 88.1263 -8.07139 1.8813 -1.21558 53.1447 -2.98074 -24.0528 121.509 33.96 -4.79731 173.419 -5.71131 89.7723 -35.9395 -14.0661 -0.42525 86.0603 -13.7531 -4.4347 26.2589 -0.200053 5.03702 1.21811 8.33285 -90.0315 10.2126 2.41256 -0.267766 -1.45617 2.39845 -0.373756 -24.009 2.38144 0.470115 -3.99633 2.38143 0.470113 90.5309 -25.0714 -107.662 43.3744 2.81733 -23.0157 -4.99916 -37.3117 -5.28281 -22.8801 3.36457 -22.2226 -89.2403 -54.0177 80.646 -16.9577 -10.9733 7.08794 -10.9707 27.4364 -0.0166402 3.4367 -0.206521 -13.3301 3.06333 -3.15592 3.21338 1.884 -3.82277 -4.6512 
8.53785 95.2367 -17.2161 101.475 40.4372 80.6406 -177.216 19.7807 86.4683 -8.20954 -0.102698 -2.26124 52.7143 -4.08683 -14.8586 77.7389 20.9805 12.8309 171.666 -14.9113 89.5415 -28.4814 -16.7555 -0.999733 81.8756 -13.4516 -5.2762 30.9966 -2.07792 4.85585 1.54268 8.22096 -89.9496 10.4373 3.09619 -0.172662 -1.23001 3.0856 -0.3089 -23.7936 3.00481 0.766714 -3.78095 3.00481 0.766717 90.0482 -25.4998 -108.504 43.4415 2.97347 -22.3304 -5.09126 -38.8163 -5.33198 -20.9898 2.74547 -20.435 -88.8489 -55.2313 81.4239 -17.5345 -13.0017 8.87219 -10.4545 23.507 -0.0263162 1.40173 -0.0558194 -13.9644 2.77215 -3.20456 3.05091 1.17721 -3.80467 -4.48032 
15.9949 96.3413 -25.2363 100.505 38.3304 80.2178 -176.717 15.7929 84.2038 -11.0873 3.17576 -2.51861 54.4272 -2.20738 -7.18863 30.7671 -9.73511 25.7305 170.125 -17.1699 85.9292 -31.0325 -19.1934 -2.99347 69.3934 -5.96582 -5.2875 41.98 -6.96926 10.017 1.61006 7.9935 -89.7128 10.8863 3.33847 0.257826 -0.780403 3.34659 0.11047 -23.3461 3.1065 1.2502 -3.3335 3.1065 1.2502 89.9247 -25.7165 -108.67 47.649 1.71998 -18.2611 -5.06751 -38.4336 -5.31913 -18.8374 1.96293 -17.4675 -87.9969 -55.5694 82.6856 -18.4483 -14.3257 9.7522 -9.77338 22.6607 -0.0921161 0.181397 0.0217595 -14.6145 4.18624 -2.78366 2.06495 -0.673503 -3.18531 -4.69263 
22.8748 97.1334 -32.4333 102.26 38.685 77.1899 -175.625 14.8155 81.0621 -26.4374 5.90639 -3.30906 64.9376 1.95213 -4.68442 14.4928 -17.7238 16.8042 170.023 -8.95057 82.0679 -50.2912 -23.0871 -4.69748 55.3796 3.44113 0.504767 31.3645 -3.13313 9.69319 1.22573 8.02066 -89.4456 10.8243 2.69654 0.852557 -0.844069 2.73145 0.732969 -23.3946 2.31563 1.62388 -3.38199 2.31563 1.62388 89.7326 -26.2567 -108.838 51.0619 1.69415 -12.7743 -5.15434 -39.8101 -5.36666 -17.8281 1.73701 -16.7184 -88.4797 -54.1094 81.7522 -18.5571 -13.2295 3.21757 -10.2927 24.6494 -0.175555 0.803236 0.0556866 -13.9198 4.19184 -2.50021 0.440853 -0.33354 -2.63151 -4.5606 
28.5889 98.1106 -37.8881 103.43 37.9105 75.7401 -175.441 8.69135 80.1374 -28.6894 4.65121 -3.79277 70.9021 5.72297 -1.55317 11.8108 -13.4753 8.0938 174.723 2.8599 83.2298 -65.2416 -23.389 -6.47381 59.5465 0.126441 -0.770406 26.0242 -0.516334 6.51966 0.894892 8.18399 -89.3055 10.4927 2.10129 1.19315 -1.177 2.15175 1.09949 -23.717 1.6456 1.76954 -3.70435 1.64557 1.76953 89.8436 -27.0274 -108.273 52.5218 2.22686 -9.23065 -5.29804 -41.98 -5.44868 -18.1575 1.69375 -16.2064 -88.882 -52.97 80.967 -16.602 -13.5399 -8.30027 -10.5067 24.8544 -0.0142132 4.80418 -0.225218 -12.1276 3.93613 -1.79544 -0.514416 -0.155302 -1.79118 -5.10875 
34.3493 99.557 -42.6414 104.471 40.3496 78.0331 -175.701 1.31606 82.9413 -25.3999 6.97773 -1.8007 76.867 9.57345 -1.80286 5.46087 -18.8598 9.53414 176.611 10.6259 88.5054 -57.9711 -11.2246 -4.3292 67.4111 -5.58129 -2.42911 26.3042 -0.440612 5.88108 0.331736 8.19953 -89.6513 10.4723 0.820805 0.620136 -1.19855 0.847269 0.583415 -23.7338 0.596464 0.838151 -3.72111 0.596477 0.838144 90.1974 -27.493 -107.35 52.7158 3.24817 -6.10127 -5.20477 -40.5872 -5.39486 -16.1513 1.63777 -17.2557 -88.6056 -51.3324 81.0672 -15.1397 -13.8105 -17.7814 -10.5934 21.5593 -0.0278156 7.33361 -0.666249 -13.5639 1.70643 -1.06001 -2.0337 0.309481 -0.829099 -3.64458 
40.354 100.028 -47.2126 104.158 43.3425 80.3442 -174.945 -4.49758 85.9878 -21.9984 11.415 -0.549517 78.5869 11.1834 -0.190865 9.57526 -15.8578 9.28308 177.567 14.1994 92.0057 -36.3145 -2.60163 -2.09079 68.3725 -6.72372 -1.78395 25.8998 0.0127275 4.79953 -0.0473587 8.16473 -89.9321 10.5439 -0.0631037 0.14056 -1.12707 -0.0568681 0.143193 -23.6622 -0.102441 0.115093 -3.64955 -0.102445 0.11509 90.5814 -28.0044 -106.361 52.0439 4.7305 -2.61236 -5.01099 -37.5073 -5.28966 -17.2133 1.88642 -18.1587 -88.2259 -47.6531 80.938 -17.1945 -13.4975 -26.7561 -10.2612 20.1804 -0.00362934 9.0592 -1.37711 -17.9352 1.41323 -1.38125 -4.59984 0.268149 -0.7215 -2.27438 
46.8092 99.268 -52.2306 103.155 45.1787 81.8193 -173.287 -9.71273 88.7585 -20.5715 14.0735 -0.44247 81.1961 12.7977 -0.0130798 14.0259 -12.8272 9.19836 178.058 15.2195 93.4013 -13.4649 -4.76676 -0.133921 64.5699 -4.59071 -1.78923 27.2221 -0.467102 4.53911 -0.232144 8.13173 -89.9929 10.6105 -0.459049 0.0556179 -1.06035 -0.456153 0.0757537 -23.5962 -0.454541 -0.0849245 -3.58358 -0.454551 -0.0849269 90.3402 -29.8522 -106.138 50.1534 6.43611 0.422502 -4.98735 -37.1129 -5.27725 -16.9926 1.89173 -18.375 -88.1693 -45.3149 80.5655 -18.7338 -13.8749 -33.6365 -9.56434 20.533 -0.215322 10.1993 -2.24567 -23.3326 2.45376 -1.99517 -8.0209 0.448232 -0.709862 -1.24762 
53.7853 97.3315 -58.0284 103.024 46.4367 81.6987 -171.408 -16.6815 91.013 -18.496 15.7888 -0.530628 87.2954 17.3047 -1.51202 12.9366 -15.2259 11.6402 178.132 16.6677 94.2416 -6.67815 -4.13364 0.787095 64.8925 -4.15193 -1.89586 28.5097 -0.809119 3.78915 -0.443468 8.14204 -89.9647 10.59 -0.867025 0.14776 -1.08064 -0.85966 0.185768 -23.618 -0.871321 -0.119664 -3.60535 -0.871333 -0.11967 90.3003 -30.8466 -105.851 49.0639 7.31924 2.07069 -4.95485 -36.5657 -5.2607 -13.8116 1.30824 -16.5625 -88.596 -46.0812 80.0493 -19.7511 -15.1098 -36.6378 -8.20298 22.3778 -1.36776 11.0535 -2.79398 -26.1343 3.65408 -2.2635 -8.97106 0.415493 -0.7461 -1.93711 
61.7815 96.8069 -65.0332 103.417 48.4548 82.6121 -168.458 -22.5144 95.6199 -17.1374 19.7375 0.270505 80.5931 14.9372 1.24527 25.4933 -8.27537 13.946 177.991 19.2513 95.7665 -17.553 -7.53732 0.984288 61.0639 0.1527 -1.27911 22.8909 1.05298 5.4918 -0.640136 8.01905 -90.1785 10.8349 -1.35692 -0.228332 -0.835319 -1.36568 -0.168381 -23.3752 -1.22556 -0.625645 -3.36251 -1.22558 -0.625654 90.8681 -30.826 -104.742 49.0385 7.8469 3.8617 -4.97677 -36.9345 -5.27185 -12.8851 1.09151 -15.4761 -89.0744 -47.2197 79.5428 -21.0646 -14.2838 -35.5096 -8.96906 22.843 -0.0146161 11.0481 -2.26271 -22.1423 3.9275 -2.33534 -8.3557 -0.725971 -0.895986 -2.69738 
